<?xml version="1.0" encoding="UTF-8"?>
<svg id="Layer_2" data-name="Layer 2" xmlns="http://www.w3.org/2000/svg" viewBox="0 0 908.34 267.37">
  <defs>
    <style>
      .cls-1 {
        fill:rgb(0, 0, 0);
        stroke-width: 0px;
      }
    </style>
  </defs>
  <g id="Layer_1-2" data-name="Layer 1">
    <path class="cls-1" d="m274.03,200.51h6.72v-20.81h24.88v-6.01h-24.88v-15.92h28.53v-6.01h-35.26v48.76Zm63.08-28.12l-1.53,2.83h-.41l-1.41-2.83-12.62-20.63h-7.78l18.57,29.95v18.81h6.78v-18.69l18.81-30.07h-7.84l-12.56,20.63Zm33.37-20.63h-6.72v48.76h34.14v-6.13h-27.41v-42.63Zm74.87,1.06v-1h-7.66l-26.82,25.29v-25.29h-6.72v48.7h6.66v-14.92l9.49-9.08,17.33,23.99h7.84v-1l-20.1-27.53,19.99-19.16Zm-41.21,47.75v-.06h-.06l.06.06Zm54.24-21.05h25.59v-6.01h-25.59v-15.8h29.18v-6.01h-35.9v48.82h36.2v-6.01h-29.48v-14.98Zm55.54-6.84c-9.73-2.65-12.56-4.78-12.56-8.61,0-4.48,4.54-7.25,11.56-7.25,5.54,0,10.73,2.06,13.8,4.01l3.07-5.78c-3.66-2.18-9.79-4.3-16.68-4.3-11.61,0-18.39,5.72-18.39,13.74,0,7.25,4.3,11.14,16.15,14.33,10.14,2.71,13.32,4.78,13.32,9.08,0,4.95-4.36,7.72-11.5,7.72-6.07,0-11.56-2.36-15.8-5.25l-3.6,5.78c4.54,3.12,11.38,5.54,19.4,5.54,11.26,0,18.22-5.13,18.22-14.09,0-7.61-4.54-11.5-16.98-14.92Zm66.56-19.87v-1h-7.66l-26.82,25.29v-25.29h-6.72v48.7h6.72v-14.92l9.49-9.08,17.33,23.99h7.84v-1l-20.1-27.53,19.93-19.16Zm26.41-2.06c-15.51,0-25.35,11.32-25.35,25.59s9.79,25.35,25.35,25.35,25.35-11.38,25.35-25.65-9.85-25.29-25.35-25.29Zm0,44.87c-11.32,0-18.51-8.55-18.51-19.46s7.25-19.4,18.51-19.4,18.57,8.49,18.57,19.4-7.25,19.46-18.57,19.46Zm58.31-20.4l-22.23-23.52h-1.89v48.82h6.6v-34.49l16.45,17.27h1.77l16.57-17.39v34.67h6.66v-48.87h-1.65l-22.29,23.52Zm-24.17,25.35h.06v-.06h-.06v.06Zm83.89-25.35l-22.23-23.52h-1.89v48.82h6.54v-34.49l16.45,17.27h1.77l16.63-17.39v34.67h6.66v-48.87h-1.65l-22.29,23.52Zm-24.23,25.35h.12v-.06h-.12v.06Zm94.21-20.28c0,8.9-4.66,15.33-14.21,15.33s-14.09-6.43-14.09-15.33v-28.53h-6.72v28.65c0,12.56,7.72,21.28,20.81,21.28s20.69-8.67,20.69-21.28v-28.65h-6.48v28.53Zm52.65,6.54l-33.25-35.73h-1.83v49.46h6.25v-35.08l33.25,35.85h.06v-.06h1.83v-49.46h-6.31v35.02Zm24.58-7.25h25.59v-6.01h-25.59v-15.8h29.18v-6.01h-35.9v48.82h36.2v-6.01h-29.48v-14.98ZM361.58,41.62l8.19-9.02-11.73-9.96-8.08,8.9c-7.25-4.24-16.15-6.72-26.35-6.72-29.89,0-48.34,21.34-48.34,47.7,0,11.61,3.54,22.11,10.08,30.3l-8.49,9.43,12.03,9.96,8.19-9.14c7.37,4.36,16.27,6.84,26.53,6.84,29.89,0,48.34-21.34,48.34-47.7,0-11.61-3.71-22.4-10.38-30.6Zm-66.8,30.83v-.06c0-17.92,12.14-30.3,28.83-30.3,5.19,0,9.85,1.24,13.91,3.3l-38.91,42.92c-2.48-4.48-3.83-9.85-3.83-15.86Zm28.77,30.24c-5.16,0-9.9-1.23-14.01-3.38l-.02.02-.06-.06s.05.02.08.04l38.89-43.01c2.59,4.48,3.95,9.96,3.95,16.09,0,17.92-12.03,30.3-28.83,30.3Zm100.17-39.38c-14.92-3.95-19.69-7.07-19.69-12.26,0-5.72,5.72-9.02,15.74-9.02,10.67,0,21.28,3.42,26.94,6.66l7.66-15.98c-8.73-4.66-21.17-7.9-32.78-7.9-23.35,0-36.91,10.49-36.91,27.71,0,13.68,8.61,21.28,30.6,27.3,16.68,4.48,21.28,7.25,21.28,12.97,0,6.31-5.6,9.85-15.15,9.85-10.49,0-21.05-3.66-30.19-9.85l-9.73,16.39c9.32,6.13,24.47,10.67,38.91,10.67l.06.06c22.29,0,35.9-10.91,35.9-29.12,0-13.8-8.61-21.05-32.66-27.47Zm70.51,54.48h19.51V43.27h29.24v-16.51h-78v16.51h29.24v74.52Zm61.2,0h19.51v-34.96h41.39v-16.92h-41.39v-22.11h48.76v-17.1h-68.33v91.15h.06v-.06Zm123.81,2.06c29.95,0,48.34-21.34,48.34-47.7s-18.45-47.4-48.34-47.4-48.34,21.34-48.34,47.7,18.45,47.4,48.34,47.4Zm0-77.82c16.68,0,28.83,12.44,28.83,30.3s-12.03,30.3-28.83,30.3-28.83-12.44-28.83-30.3,12.14-30.3,28.83-30.3Zm84.72-15.27h-19.51v91.09h66.92v-17.22h-47.4V26.77Zm144.38,45.57c0-26.53-18.45-45.63-48.34-45.63h-36.08v91.15h36.08c29.89,0,48.34-18.98,48.34-45.51Zm-49.7,29.01h-15.21v-58.07h15.33c17.33,0,30.07,10.08,30.07,29.12s-12.97,28.95-30.19,28.95Z"/>
    <path class="cls-1" d="m220.48,41.68V0H.1v41.68C.1,81.83-3.14,124.16,27.63,183.94c29.95,58.31,80.42,82.77,82.66,83.42h.12c1.71-.45,31.54-14.89,58.89-47.67L1.1,53.06s146.27,112.96,157.94,120.21c.71-.24-6.37-11.2-9.31-16.51-6.6-11.91-15.62-10.55-25.71-19.28-10.49-7.55-12.5-27.71-29.36-35.08-18.75-8.14-23.17-21.4-30.3-35.49-6.9-11.67-23.23-13.09-28.36-24.88-5.66-13.03-7.9-22.58-21.99-28.36C5.05,10.02,3.69,9.31,2.4,2.12c0,0,2.48,4.24,5.07,5.54,7.13,3.48,15.62,1.59,21.81,5.9,0,0,7.37,5.66,11.5,12.79,10.61,18.45,15.39,14.39,28.83,21.28,15.56,7.19,13.85,26.53,28.42,33.02,17.33,6.25,27.95,14.86,34.9,29.54,5.31,11.14,12.26,12.44,18.34,14.56,7.78,3.12,20.87,14.03,20.87,14.03-2.18-4.6-90.2-114.2-108.3-137.01l147.31,137.27c10.97-37.54,9.33-68.06,9.33-97.35Z"/>
  </g>
</svg>
