<?xml version="1.0" encoding="UTF-8"?>
<svg id="Layer_1" xmlns="http://www.w3.org/2000/svg" viewBox="0 0 713 141">
  <defs>
    <style>
      .cls-1 {
        fill: #00aceb;
      }

      .cls-2 {
        fill: #1cc600;
      }

      .cls-3 {
        fill: #002969;
      }

      .cls-4 {
        fill: #fff;
      }
    </style>
  </defs>
  <g>
    <rect class="cls-4" width="713" height="141" rx="21" ry="21"/>
    <path class="cls-3" d="M670.1,44.03c1.14.65,2.45.97,3.84.97s2.67-.32,3.8-.97c1.14-.64,2.04-1.54,2.7-2.68.66-1.14.99-2.42.99-3.85s-.33-2.7-.99-3.83c-.66-1.13-1.55-2.02-2.68-2.68-1.13-.66-2.4-.99-3.82-.99s-2.71.33-3.84.99c-1.14.66-2.03,1.55-2.68,2.68s-.97,2.4-.97,3.83.32,2.71.97,3.85c.64,1.14,1.54,2.03,2.68,2.68M668.7,34.4c.52-.93,1.23-1.67,2.15-2.19.92-.53,1.97-.8,3.09-.8s2.14.27,3.07.8c.93.53,1.65,1.26,2.17,2.19.52.93.77,1.91.77,3.07s-.26,2.21-.77,3.15c-.52.93-1.23,1.67-2.15,2.19h0c-.92.52-1.97.79-3.09.79s-2.14-.27-3.07-.8c-.93-.53-1.65-1.26-2.17-2.19s-.78-1.97-.78-3.1.26-2.17.78-3.1"/>
    <path class="cls-3" d="M672.7,38.19h1.28l1.94,3.23h1.71l-2.17-3.54c.38-.16.69-.41.91-.78.22-.36.33-.75.33-1.2,0-.69-.22-1.26-.64-1.69-.42-.43-1.01-.64-1.77-.64h-3.03v7.84h1.44v-3.23ZM672.7,34.83h1.35c.36,0,.66.09.88.29.22.2.33.46.33.8,0,.31-.11.56-.33.76h0c-.23.21-.52.3-.88.3h-1.35v-2.14Z"/>
    <path class="cls-1" d="M24.04,16h156.72c4.44,0,8.04,3.6,8.04,8.04v92.93c0,4.44-3.6,8.04-8.04,8.04H24.04c-4.44,0-8.04-3.6-8.04-8.04V24.04c0-4.44,3.6-8.04,8.04-8.04"/>
    <path class="cls-3" d="M133.64,109.52c21.44,0,38.82-17.45,38.82-38.98s-17.38-38.98-38.82-38.98-38.82,17.45-38.82,38.98,17.38,38.98,38.82,38.98"/>
    <path class="cls-4" d="M33.02,36.73l71.17,59.22,24.5-64.07-93.85.1c-2.48,0-3.66,3.07-1.81,4.75"/>
    <path class="cls-2" d="M128.69,31.88c-13.69,1.78-26,10.85-31.29,24.7-5.29,13.85-2.19,28.86,6.8,39.38,13.69-1.78,26-10.85,31.3-24.7,5.29-13.85,2.19-28.86-6.8-39.38"/>
  </g>
  <g>
    <path class="cls-3" d="M221.04,39.24h16.49l13.54,32.46c2.78,7.03,4.17,12.32,4.17,12.32,0,0,1.39-5.29,4.25-12.24l13.54-32.55h16.06v60.75h-11.8v-31.59c0-7.55.35-13.11.35-13.11,0,0-1.82,5.29-4.6,12.24l-13.45,32.46h-9.03l-13.45-32.46c-2.78-6.94-4.51-12.15-4.51-12.15,0,0,.26,5.47.26,13.02v31.59h-11.8v-60.75Z"/>
    <path class="cls-3" d="M299.41,43.58c0-3.99,2.95-6.86,7.03-6.86s7.12,2.86,7.12,6.86-3.04,6.86-7.12,6.86-7.03-2.95-7.03-6.86ZM300.88,56.25h11.02v43.74h-11.02v-43.74Z"/>
    <path class="cls-3" d="M322.93,38.54h11.02v61.45h-11.02v-61.45Z"/>
    <path class="cls-3" d="M337.08,116.13l.35-9.2c.61.09,1.65.17,2.43.17,4.08,0,5.21-2.86,5.21-7.9v-42.96h11.02v44.35c0,10.15-5.12,15.88-14.93,15.88-1.48,0-2.78-.17-4.08-.35ZM343.5,43.58c0-3.99,2.95-6.86,7.03-6.86s7.12,2.86,7.12,6.86-3.04,6.86-7.12,6.86-7.03-2.95-7.03-6.86Z"/>
    <path class="cls-3" d="M374.31,97.65l-4.34,5.03-5.21-4.51,4.17-4.86c-3.47-3.99-5.47-9.2-5.47-15.27,0-13.19,9.63-22.48,22.91-22.48,4.6,0,8.77,1.13,12.24,3.12l4.51-5.21,5.21,4.6-4.34,5.03c3.38,3.91,5.29,9.03,5.29,14.93,0,13.28-9.63,22.65-22.91,22.65-4.51,0-8.59-1.13-12.06-3.04ZM392.1,66.31c-1.65-.87-3.65-1.39-5.73-1.39-6.94,0-11.8,5.29-11.8,13.11,0,2.6.52,4.95,1.48,6.94l16.06-18.66ZM398.18,78.03c0-2.43-.52-4.69-1.39-6.51l-15.88,18.49c1.56.87,3.47,1.3,5.47,1.3,6.94,0,11.8-5.38,11.8-13.28Z"/>
    <path class="cls-3" d="M419.53,65.19h-7.03v-8.94h7.03v-3.56c0-10.24,6.77-15.54,15.54-15.54,2.6,0,4.77.35,6.68,1.13l-.78,9.29c-1.74-.69-3.04-.95-4.51-.95-3.56,0-5.9,2.43-5.9,6.77v2.86h10.41v8.94h-10.41v34.8h-11.02v-34.8Z"/>
    <path class="cls-3" d="M459.71,99.03l-17.18-42.79h11.89l11.02,28.73,10.94-28.73h11.54l-23.78,59.54h-11.54l7.12-16.75Z"/>
    <path class="cls-3" d="M491.4,56.25h11.02v5.9c2.43-4.17,7.12-6.6,12.76-6.6,1.82,0,3.99.26,5.38.87l-.78,10.41c-1.74-.69-3.65-.95-5.55-.95-6.34,0-11.8,5.21-11.8,17.53v16.58h-11.02v-43.74Z"/>
    <path class="cls-3" d="M530.62,85.41v-20.22h-7.03v-8.94h7.03v-10.67h11.02v10.67h10.33v8.94h-10.33v19.27c0,4.43,2.34,6.68,5.9,6.68,1.56,0,2.95-.35,4.43-.87l.78,9.29c-1.91.78-4.34,1.13-6.68,1.13-8.76,0-15.45-5.38-15.45-15.27Z"/>
    <path class="cls-3" d="M557.18,87.84c0-8.59,5.81-13.19,19.09-14.58l8.5-.87v-.95c0-4.6-3.3-7.38-8.24-7.38s-7.9,2.34-8.5,7.38l-10.42-1.56c1.39-8.68,9.03-14.32,18.92-14.32,11.28,0,19.18,6.16,19.18,17.36v27.08h-10.94v-5.55c-1.91,3.47-6.94,6.25-12.5,6.25-9.29,0-15.1-5.55-15.1-12.84ZM566.55,43.4c0-5.38,4.08-9.46,10.07-9.46s10.07,4.08,10.07,9.46-4.08,9.55-10.07,9.55-10.07-4.08-10.07-9.55ZM576.71,81.33c-6.16.69-8.77,2.43-8.77,6.08,0,3.21,2.6,5.03,6.51,5.03,6.25,0,10.33-5.21,10.33-11.46v-.69l-8.07,1.04ZM580.87,43.4c0-2.26-1.65-4.17-4.25-4.17s-4.34,1.91-4.34,4.17,1.74,4.34,4.34,4.34,4.25-2,4.25-4.34Z"/>
    <path class="cls-3" d="M604.91,56.25h11.02v5.9c2.43-4.17,7.12-6.6,12.76-6.6,1.82,0,3.99.26,5.38.87l-.78,10.41c-1.74-.69-3.65-.95-5.55-.95-6.34,0-11.8,5.21-11.8,17.53v16.58h-11.02v-43.74Z"/>
    <path class="cls-3" d="M639.54,56.25h11.02v5.73c2.26-3.3,7.38-6.42,14.23-6.42,9.46,0,16.23,6.07,16.23,16.32v28.12h-11.02v-25.78c0-5.64-3.38-9.03-8.42-9.03-6.86,0-11.02,5.81-11.02,15.8v19.01h-11.02v-43.74Z"/>
  </g>
</svg>